HIERARCHY
ROOT Hips
{
    OFFSET   0.000000   0.000000   0.000000
    CHANNELS 6 Xposition Yposition Zposition Zrotation Xrotation Yrotation
    JOINT Chest
    {
        OFFSET   0.000000   8.007230   0.000000
        CHANNELS 3 Zrotation Xrotation Yrotation
        JOINT Chest2
        {
            OFFSET   0.000000  22.077100   0.000000
            CHANNELS 3 Zrotation Xrotation Yrotation
            JOINT Neck
            {
                OFFSET   0.000000  23.255100   0.000000
                CHANNELS 3 Zrotation Xrotation Yrotation
                JOINT Head
                {
                    OFFSET   0.000000  14.370100   1.956600
                    CHANNELS 3 Zrotation Xrotation Yrotation
                    End Site
                    {
                        OFFSET   0.000000  19.566000   0.000000
                    }
                }
            }
            JOINT LeftCollar
            {
                OFFSET   3.911900  19.017000  -0.467063
                CHANNELS 3 Zrotation Xrotation Yrotation
                JOINT LeftShoulder
                {
                    OFFSET  10.383700   0.000000   0.000000
                    CHANNELS 3 Zrotation Xrotation Yrotation
                    JOINT LeftElbow
                    {
                        OFFSET  26.662100   0.001193   0.000980
                        CHANNELS 3 Zrotation Xrotation Yrotation
                        JOINT LeftWrist
                        {
                            OFFSET  28.869000  -0.000059  -0.000082
                            CHANNELS 3 Zrotation Xrotation Yrotation
                            JOINT LeftFinger0
                            {
                                OFFSET   2.044650  -2.323450   3.252850
                                CHANNELS 3 Zrotation Xrotation Yrotation
                                JOINT LeftFinger01
                                {
                                    OFFSET   3.088130   0.000000   0.000000
                                    CHANNELS 3 Zrotation Xrotation Yrotation
                                    JOINT LeftFinger02
                                    {
                                        OFFSET   2.639460   0.000000   0.000000
                                        CHANNELS 3 Zrotation Xrotation Yrotation
                                        End Site
                                        {
                                            OFFSET   2.582190   0.000000   0.000000
                                        }
                                    }
                                }
                            }
                            JOINT LeftFinger1
                            {
                                OFFSET   8.364480   0.000000   3.252850
                                CHANNELS 3 Zrotation Xrotation Yrotation
                                JOINT LeftFinger11
                                {
                                    OFFSET   4.646930   0.000000   0.000000
                                    CHANNELS 3 Zrotation Xrotation Yrotation
                                    JOINT LeftFinger12
                                    {
                                        OFFSET   2.323470   0.000000   0.000000
                                        CHANNELS 3 Zrotation Xrotation Yrotation
                                        End Site
                                        {
                                            OFFSET   2.273050   0.000000   0.000000
                                        }
                                    }
                                }
                            }
                            JOINT LeftFinger2
                            {
                                OFFSET   8.364490   0.000016   1.078090
                                CHANNELS 3 Zrotation Xrotation Yrotation
                                JOINT LeftFinger21
                                {
                                    OFFSET   5.111610   0.000000   0.000000
                                    CHANNELS 3 Zrotation Xrotation Yrotation
                                    JOINT LeftFinger22
                                    {
                                        OFFSET   2.788150   0.000016   0.000000
                                        CHANNELS 3 Zrotation Xrotation Yrotation
                                        End Site
                                        {
                                            OFFSET   2.727660   0.000000   0.000000
                                        }
                                    }
                                }
                            }
                            JOINT LeftFinger3
                            {
                                OFFSET   7.899780   0.000015  -1.078090
                                CHANNELS 3 Zrotation Xrotation Yrotation
                                JOINT LeftFinger31
                                {
                                    OFFSET   4.646930   0.000000   0.000000
                                    CHANNELS 3 Zrotation Xrotation Yrotation
                                    JOINT LeftFinger32
                                    {
                                        OFFSET   2.323470   0.000000   0.000000
                                        CHANNELS 3 Zrotation Xrotation Yrotation
                                        End Site
                                        {
                                            OFFSET   2.273050   0.000000   0.000000
                                        }
                                    }
                                }
                            }
                            JOINT LeftFinger4
                            {
                                OFFSET   7.435090   0.000000  -3.252850
                                CHANNELS 3 Zrotation Xrotation Yrotation
                                JOINT LeftFinger41
                                {
                                    OFFSET   3.717550   0.000000   0.000000
                                    CHANNELS 3 Zrotation Xrotation Yrotation
                                    JOINT LeftFinger42
                                    {
                                        OFFSET   1.858770   0.000000   0.000000
                                        CHANNELS 3 Zrotation Xrotation Yrotation
                                        End Site
                                        {
                                            OFFSET   1.818440   0.000000   0.000000
                                        }
                                    }
                                }
                            }
                        }
                    }
                }
            }
            JOINT RightCollar
            {
                OFFSET  -3.911910  19.017000  -0.467062
                CHANNELS 3 Zrotation Xrotation Yrotation
                JOINT RightShoulder
                {
                    OFFSET -10.383700   0.000014   0.000000
                    CHANNELS 3 Zrotation Xrotation Yrotation
                    JOINT RightElbow
                    {
                        OFFSET -26.662100   0.001225   0.001091
                        CHANNELS 3 Zrotation Xrotation Yrotation
                        JOINT RightWrist
                        {
                            OFFSET -28.869000  -0.000020  -0.000085
                            CHANNELS 3 Zrotation Xrotation Yrotation
                            JOINT RightFinger0
                            {
                                OFFSET  -2.044650  -2.323490   3.252850
                                CHANNELS 3 Zrotation Xrotation Yrotation
                                JOINT RightFinger01
                                {
                                    OFFSET  -3.088130   0.000000   0.000000
                                    CHANNELS 3 Zrotation Xrotation Yrotation
                                    JOINT RightFinger02
                                    {
                                        OFFSET  -2.639460   0.000000   0.000000
                                        CHANNELS 3 Zrotation Xrotation Yrotation
                                        End Site
                                        {
                                            OFFSET  -2.582190   0.000000   0.000000
                                        }
                                    }
                                }
                            }
                            JOINT RightFinger1
                            {
                                OFFSET  -8.364480   0.000000   3.252850
                                CHANNELS 3 Zrotation Xrotation Yrotation
                                JOINT RightFinger11
                                {
                                    OFFSET  -4.646930   0.000000   0.000000
                                    CHANNELS 3 Zrotation Xrotation Yrotation
                                    JOINT RightFinger12
                                    {
                                        OFFSET  -2.323470   0.000000   0.000000
                                        CHANNELS 3 Zrotation Xrotation Yrotation
                                        End Site
                                        {
                                            OFFSET  -2.273050   0.000000   0.000000
                                        }
                                    }
                                }
                            }
                            JOINT RightFinger2
                            {
                                OFFSET  -8.364480   0.000000   1.078090
                                CHANNELS 3 Zrotation Xrotation Yrotation
                                JOINT RightFinger21
                                {
                                    OFFSET  -5.111620   0.000000   0.000000
                                    CHANNELS 3 Zrotation Xrotation Yrotation
                                    JOINT RightFinger22
                                    {
                                        OFFSET  -2.788160   0.000000   0.000000
                                        CHANNELS 3 Zrotation Xrotation Yrotation
                                        End Site
                                        {
                                            OFFSET  -2.727660   0.000000   0.000000
                                        }
                                    }
                                }
                            }
                            JOINT RightFinger3
                            {
                                OFFSET  -7.899780   0.000000  -1.078090
                                CHANNELS 3 Zrotation Xrotation Yrotation
                                JOINT RightFinger31
                                {
                                    OFFSET  -4.646930   0.000000   0.000000
                                    CHANNELS 3 Zrotation Xrotation Yrotation
                                    JOINT RightFinger32
                                    {
                                        OFFSET  -2.323470   0.000000   0.000000
                                        CHANNELS 3 Zrotation Xrotation Yrotation
                                        End Site
                                        {
                                            OFFSET  -2.273050   0.000000   0.000000
                                        }
                                    }
                                }
                            }
                            JOINT RightFinger4
                            {
                                OFFSET  -7.435090   0.000000  -3.252850
                                CHANNELS 3 Zrotation Xrotation Yrotation
                                JOINT RightFinger41
                                {
                                    OFFSET  -3.717550   0.000000   0.000000
                                    CHANNELS 3 Zrotation Xrotation Yrotation
                                    JOINT RightFinger42
                                    {
                                        OFFSET  -1.858760   0.000000   0.000000
                                        CHANNELS 3 Zrotation Xrotation Yrotation
                                        End Site
                                        {
                                            OFFSET  -1.818440   0.000000   0.000000
                                        }
                                    }
                                }
                            }
                        }
                    }
                }
            }
        }
    }
    JOINT LeftHip
    {
        OFFSET   9.783030   0.000000   0.000000
        CHANNELS 3 Zrotation Xrotation Yrotation
        JOINT LeftKnee
        {
            OFFSET   0.000063 -41.789100   0.000608
            CHANNELS 3 Zrotation Xrotation Yrotation
            JOINT LeftAnkle
            {
                OFFSET   0.000048 -41.133200  -0.000184
                CHANNELS 3 Zrotation Xrotation Yrotation
                JOINT LeftToe
                {
                    OFFSET   0.000000  -6.358960  14.674500
                    CHANNELS 3 Zrotation Xrotation Yrotation
                    End Site
                    {
                        OFFSET   0.000000   0.000000   3.913200
                    }
                }
            }
        }
    }
    JOINT RightHip
    {
        OFFSET  -9.783030   0.000000   0.000000
        CHANNELS 3 Zrotation Xrotation Yrotation
        JOINT RightKnee
        {
            OFFSET   0.000071 -41.789100   0.001239
            CHANNELS 3 Zrotation Xrotation Yrotation
            JOINT RightAnkle
            {
                OFFSET   0.000037 -41.133200  -0.000166
                CHANNELS 3 Zrotation Xrotation Yrotation
                JOINT RightToe
                {
                    OFFSET   0.000000  -6.358960  14.674500
                    CHANNELS 3 Zrotation Xrotation Yrotation
                    End Site
                    {
                        OFFSET   0.000000   0.000000   3.913200
                    }
                }
            }
        }
    }
}
MOTION
Frames: 5
Frame Time:   0.016667
 -1.955560  89.496300  -1.117160  -3.041520 -18.036100   0.252862   1.280040  10.006300   1.875060   2.274380  20.047600   3.603400   3.197980   1.193250  -0.066666   5.258910   2.396570   4.446390  -5.853240  -7.919330  -5.235240 -14.646500  31.728500 -92.756600  43.810000   3.286870 -75.255000  48.994600  44.812100 -12.571400  36.463200  25.162800 -58.293400 -29.759200  -0.014221  -0.007944  -9.879610  -0.004415  -0.018863  -1.316580   0.288355  -9.267220  -0.877436   0.022276  -0.003423  -0.614213   0.015584   0.000652   2.202330   0.058566  -2.065620  -0.000275   0.008678  -0.007354   0.098353   0.001843  -0.004819  -4.365690  -1.143410  14.840100  -4.520410  -0.017468  -0.002371  -3.010610  -0.011658   0.001699  -7.601900  -3.080370  22.543000 -12.341200   0.033005   0.005074  -8.219230   0.021216   0.006563   7.646220  -4.811090  11.220100  18.529500  19.516400  74.088900 -36.209800   1.523930  59.180400 -62.610200  26.442100  39.682200 -42.821600  35.926500  65.307900  28.948700   0.020614  -0.036729   9.474370   0.007303  -0.019732   6.459050   0.653294   5.962750   5.334360   0.019051  -0.000236   3.734060   0.013016  -0.000256   4.433530  -0.953488 -11.349200   4.537540  -0.010211   0.008073   3.022010  -0.006673   0.001850   2.670700  -0.708627 -15.031000   2.766090   0.000000   0.006027   1.842230   0.000000  -0.008225  13.690000  -3.716220 -15.349400  21.245200   0.161732  -0.126799  14.149200   0.081430  -0.109487   4.027810  20.081500   2.485650   1.424010   0.001768   6.115560  -2.983210  -2.906560  -0.260651  -0.000000   0.000000  -0.000000   4.985470  20.256000  -9.743890  -0.585383   1.601310  -9.366920  -0.372189  -5.192110   0.464687  -0.000000   0.000000   0.000000
 -1.978810  89.482400  -1.120700  -3.043490 -18.087500   0.246002   1.278630  10.045500   1.872650   2.270480  20.126000   3.598340   3.188180   1.102250  -0.061547   5.241630   2.214020   4.760620  -5.945310  -8.005020  -5.113290 -15.751300  32.544800 -92.301700  43.619400   3.411800 -75.481100  45.556900  45.929000  -4.521440  36.118100  24.051300 -58.584000 -29.470500  -0.019450  -0.010364  -9.735270  -0.007546  -0.020261  -1.493370   0.307444  -9.502810  -1.117400   0.003456  -0.003291  -0.782194   0.002419   0.000645   0.194403   0.057337  -1.705700  -0.000276   0.005987  -0.007458   0.087969   0.001848  -0.004881  -4.180990  -1.116720  15.147500  -4.374620  -0.020113  -0.002430  -2.913500  -0.013452   0.001824  -7.839150  -3.068260  21.754800 -12.758900  -0.002541   0.000744  -8.497470  -0.001910   0.000625   7.746310  -4.882590  11.272200  19.914400  19.981900  73.741500 -35.938600   1.141630  59.563200 -59.934700  28.195400  31.066900 -42.083200  35.166200  63.072100  29.695400  -0.017958   0.000963   9.847720  -0.007848   0.010235   6.719200   0.335913   3.127010   5.513380   0.008433  -0.000307   3.859360   0.005899  -0.000317   4.349370  -1.057160 -13.466200   4.487840  -0.019349   0.008247   2.988910  -0.012670   0.004539   2.670070  -0.711966 -14.819300   2.763380  -0.014420   0.006376   1.840420  -0.009544  -0.009065  15.005300  -4.215100 -15.347100  23.318200   0.095424  -0.081245  15.529900   0.045955  -0.069028   4.024320  20.133700   2.477360   1.421310   0.025608   6.126580  -2.971390  -2.934230  -0.256419  -0.000000   0.000000  -0.000000   4.995940  20.305500  -9.715370  -0.601918   1.622460  -9.384340  -0.360426  -5.207240   0.460731   0.000000   0.000000   0.000000
 -2.004070  89.474000  -1.122020  -3.043680 -18.148900   0.245098   1.274090  10.088500   1.868040   2.261400  20.211900   3.589530   3.174880   0.990781  -0.054990   5.218770   1.990240   4.804900  -6.073070  -8.106960  -4.999820 -17.522300  33.359300 -91.387900  43.073500   3.497720 -75.850400  41.200900  46.861000   2.930710  36.221400  23.129800 -59.156400 -28.081900  -0.020197  -0.010710  -9.040950  -0.008290  -0.020460  -1.514010   0.309359 -10.388400  -1.209190  -0.010244  -0.003153  -0.846451  -0.007164   0.000637  -0.681343   0.048648  -1.654280  -0.000283   0.002142  -0.007568   0.059622   0.001852  -0.004944  -3.688610  -0.999982  15.190800  -3.844580  -0.020490  -0.002473  -2.560470  -0.013709   0.001951  -8.017110  -2.923240  20.146100 -12.818600  -0.022716  -0.001184  -8.537220  -0.015029  -0.002539   7.851480  -4.967600  11.318000  21.305800  20.544600  73.391500 -35.478500   0.245408  59.860200 -56.177100  28.632400  22.318100 -41.733000  34.538100  61.929200  29.814200  -0.045000   0.025820   9.907140  -0.018523   0.031114   6.878160   0.139446   1.227150   5.632710   0.001334  -0.000486   3.942890   0.000863  -0.000464   4.163750  -1.087390 -14.534400   4.299220  -0.023432   0.008277   2.863290  -0.015347   0.006205   2.654770  -0.713035 -14.607600   2.744400  -0.022694   0.006584   1.827750  -0.015012  -0.009785  16.264500  -4.478040 -15.269900  25.275100   0.029115  -0.035691  16.833200   0.011567  -0.028568   4.020990  20.194300   2.472510   1.418680   0.041143   6.128150  -2.959580  -2.949570  -0.255817   0.000000   0.000000  -0.000000   5.009770  20.368200  -9.690690  -0.622166   1.637380  -9.415600  -0.349020  -5.228660   0.445354   0.000000   0.000000   0.000000
 -2.028610  89.472000  -1.117510  -3.032170 -18.211500   0.281583   1.263810  10.140000   1.854550   2.241630  20.313600   3.563780   3.170300   0.859592  -0.047614   5.205200   1.727420   4.233980  -6.178590  -8.245930  -4.833130 -19.290300  34.185100 -90.418200  42.387600   3.383330 -76.226000  36.582000  47.277100   9.313410  37.168200  23.151200 -60.069200 -25.044500   0.000107   0.095616  -7.522280  -0.000129   0.040161  -1.230430   0.287371 -11.952000  -0.841364  -0.004390  -0.002996  -0.590971  -0.003762   0.000625  -0.428570   0.038698  -2.074950  -0.034192   0.000159  -0.007672  -0.001849   0.001858  -0.005009  -3.027780  -0.727247  15.068200  -2.693650  -0.011457  -0.002501  -1.801870  -0.007690   0.002072  -7.718090  -2.519670  18.338100 -12.168400   0.022787   0.014927  -8.104150   0.014241   0.011084   7.937960  -5.080050  11.369200  22.474500  21.148400  73.111100 -35.085700  -1.242710  60.048000 -51.785900  27.956700  14.424200 -42.995500  34.896800  62.761700  28.239000  -0.002133  -0.034650   9.119540  -0.000530  -0.007660   7.138380   0.143421   0.708006   5.868110   0.021146  -0.011673   4.107690   0.014268  -0.009097   3.780560  -0.994332 -14.431100   3.919800  -0.003567   0.001466   2.610590  -0.002286   0.001052   2.324590  -0.631464 -14.945600   2.404370  -0.004055   0.001199   1.601280  -0.002626  -0.010430  16.953800  -4.526250 -15.096100  26.374800   0.030899  -0.043855  17.565700   0.012125  -0.033789   4.015160  20.264500   2.472180   1.414490   0.032323   6.111080  -2.948900  -2.949390  -0.271712   0.000000   0.000000   0.000000   5.022630  20.444000  -9.683230  -0.641562   1.636840  -9.446180  -0.339124  -5.244750   0.416423  -0.000000   0.000000   0.000000
 -2.052830  89.471700  -1.107300  -3.009940 -18.268300   0.353385   1.252130  10.175300   1.844850   2.218520  20.384300   3.545500   3.169220   0.719060  -0.039789   5.204360   1.446140   2.979050  -6.269130  -8.333170  -4.729620 -20.848200  34.636200 -89.494600  41.771000   3.235010 -76.443100  34.118500  47.765000  12.610500  39.284200  24.142300 -61.290400 -20.959500   0.021138   0.201942  -5.479750   0.008915   0.100782  -0.214234   0.143607 -14.467200  -0.322383   0.001464  -0.002833  -0.225676   0.001019   0.000612   0.472935  -0.001086  -3.250990  -0.068095  -0.001010  -0.007775  -0.045356   0.001863  -0.005074  -1.861840  -0.411737  14.217200  -1.446400  -0.001944  -0.002518  -0.963299  -0.001340   0.002192  -6.862400  -1.990350  15.984700 -10.734700   0.085372   0.036337  -7.149300   0.054588   0.028805   8.006320  -5.180700  11.398700  23.558400  21.659500  72.834200 -34.753000  -2.681470  60.183300 -48.998900  27.248600   9.367410 -46.280200  35.747400  64.945500  25.170100   0.064185  -0.126601   7.585050   0.028080  -0.064807   7.300380   0.171099   0.633844   6.018060   0.053678  -0.028859   4.212670   0.036379  -0.022287   3.284510  -0.804079 -13.710300   3.426250   0.026784  -0.008970   2.281880   0.017691  -0.006454   1.713250  -0.469795 -15.283400   1.792910   0.021225  -0.006197   1.194070   0.014164  -0.010759  17.226800  -4.545330 -14.485700  26.782400   0.043385  -0.068596  17.837100   0.016029  -0.051678   4.010650  20.327900   2.472990   1.408710   0.018574   6.078060  -2.940320  -2.948140  -0.307214   0.000000   0.000000  -0.000000   5.034990  20.514700  -9.681220  -0.657942   1.636290  -9.478060  -0.332074  -5.261660   0.373336  -0.000000   0.000000   0.000000
